<svg width="16" height="16" viewBox="0 0 16 16" fill="none" xmlns="http://www.w3.org/2000/svg">
<g id="Group 105">
<circle id="Ellipse 47" cx="8" cy="8" r="8" fill="#F9CB81"/>
<path id="Vector" d="M7.9998 4C9.76719 4 11.1998 5.47401 11.1998 7.29245C11.1998 8.68372 10.2497 10.1999 8.37396 11.8573C8.26966 11.9495 8.13669 12.0001 7.99919 12C7.8617 11.9999 7.72881 11.949 7.62467 11.8566L7.5006 11.7459C5.70795 10.1317 4.7998 8.65266 4.7998 7.29245C4.7998 5.47401 6.23242 4 7.9998 4ZM7.9998 6.02612C7.67338 6.02612 7.36033 6.15954 7.12952 6.39702C6.89871 6.63451 6.76904 6.9566 6.76904 7.29245C6.76904 7.6283 6.89871 7.9504 7.12952 8.18788C7.36033 8.42536 7.67338 8.55878 7.9998 8.55878C8.32623 8.55878 8.63928 8.42536 8.87009 8.18788C9.1009 7.9504 9.23057 7.6283 9.23057 7.29245C9.23057 6.9566 9.1009 6.63451 8.87009 6.39702C8.63928 6.15954 8.32623 6.02612 7.9998 6.02612Z" fill="white"/>
</g>
</svg>
