<svg width="16" height="16" viewBox="0 0 16 16" fill="none" xmlns="http://www.w3.org/2000/svg">
<g id="Group 107">
<circle id="Ellipse 49" cx="8" cy="8" r="8" fill="#F9CB81"/>
<path id="XMLID_87_" d="M11.9937 10.1322C11.9937 10.3202 11.9434 10.4949 11.868 10.6426L9.348 7.62726L11.8429 5.29694C11.9372 5.46483 12 5.65289 12 5.86107V10.1322H11.9937ZM7.99686 8.17795L11.4658 4.93431C11.3213 4.85372 11.1642 4.79999 10.9882 4.79999H4.99921C4.82325 4.79999 4.66614 4.85372 4.5216 4.93431L7.99686 8.17795ZM8.96465 7.98319L8.16025 8.73536C8.10998 8.78237 8.05342 8.8025 7.99686 8.8025C7.9403 8.8025 7.87746 8.78237 7.83346 8.73536L7.02907 7.98319L4.47761 11.0388C4.62844 11.1396 4.81068 11.2 5.0055 11.2H10.9945C11.1893 11.2 11.3653 11.1396 11.5224 11.0388L8.96465 7.98319ZM4.15711 5.29694C4.06284 5.46483 4 5.65289 4 5.86107V10.1255C4 10.3135 4.05028 10.4881 4.12569 10.6359L6.64572 7.62056L4.15711 5.29694Z" fill="white"/>
</g>
</svg>
