<svg width="16" height="16" viewBox="0 0 16 16" fill="none" xmlns="http://www.w3.org/2000/svg">
<g id="Group 108">
<circle id="Ellipse 50" cx="8" cy="8" r="8" fill="#F9CB81"/>
<path id="XMLID_136_" d="M8.0002 3.20007C5.3652 3.20007 3.2002 5.35736 3.2002 8.00006C3.2002 10.6351 5.3575 12.8001 8.0002 12.8001C10.6352 12.8001 12.8002 10.6428 12.8002 8.00006C12.8002 5.35736 10.6352 3.20007 8.0002 3.20007ZM11.3132 6.08161H9.91865C9.77226 5.45753 9.53342 4.92592 9.24835 4.35577C10.1113 4.68707 10.8817 5.26491 11.3132 6.08161ZM8.0002 4.16316C8.38543 4.7333 8.71673 5.36508 8.90935 6.08161H7.08334C7.28366 5.4036 7.61496 4.7333 8.0002 4.16316ZM4.30196 8.96314C4.2095 8.67807 4.15557 8.33907 4.15557 8.00006C4.15557 7.66876 4.2018 7.32976 4.30196 7.03698H5.93535C5.88912 7.37598 5.88912 7.66106 5.88912 8.00006C5.88912 8.33907 5.93535 8.62414 5.93535 8.96314H4.30196ZM4.68719 9.91851H6.08174C6.22812 10.5426 6.46697 11.0742 6.75204 11.6444C5.88912 11.3131 5.11865 10.7352 4.68719 9.91851ZM6.08174 6.08161H4.68719C5.16488 5.26491 5.88912 4.68707 6.75204 4.35577C6.46697 4.92592 6.22812 5.45753 6.08174 6.08161ZM8.0002 11.837C7.61496 11.2591 7.28366 10.635 7.09105 9.91851H8.91705C8.71673 10.5888 8.38543 11.2591 8.0002 11.837ZM9.10196 8.96314H6.89072C6.8445 8.62414 6.79827 8.33907 6.79827 8.00006C6.79827 7.66876 6.8445 7.37598 6.89072 7.03698H9.14819C9.19442 7.37598 9.24065 7.66106 9.24065 8.00006C9.24835 8.33136 9.15589 8.62414 9.10196 8.96314ZM9.24835 11.6444C9.53342 11.1205 9.77997 10.5426 9.91865 9.91851H11.3132C10.8817 10.7352 10.1113 11.3131 9.24835 11.6444ZM10.1113 8.96314C10.1575 8.62414 10.1575 8.33907 10.1575 8.00006C10.1575 7.66876 10.1113 7.37598 10.1113 7.03698H11.7447C11.8371 7.32205 11.891 7.66106 11.891 8.00006C11.891 8.33907 11.8448 8.67037 11.7447 8.96314H10.1113Z" fill="white"/>
</g>
</svg>
