<svg width="16" height="16" viewBox="0 0 16 16" fill="none" xmlns="http://www.w3.org/2000/svg">
<g id="Group 106">
<circle id="Ellipse 48" cx="8" cy="8" r="8" fill="#F9CB81"/>
<path id="XMLID_22_" d="M11.9964 10.3083C12.0131 10.4417 11.9714 10.55 11.8798 10.65L10.7556 11.7667C10.7057 11.825 10.6391 11.875 10.5558 11.9083C10.4725 11.95 10.3976 11.975 10.3143 11.9833C10.306 11.9833 10.2893 11.9834 10.2643 11.9917C10.2393 11.9917 10.1977 12 10.1561 12C10.0478 12 9.87294 11.9834 9.63144 11.9417C9.38995 11.9084 9.09849 11.8167 8.74875 11.6667C8.399 11.525 8.00761 11.3083 7.56627 11.0167C7.12492 10.725 6.65859 10.3333 6.15895 9.83333C5.76756 9.44166 5.43447 9.06667 5.17632 8.71667C4.91817 8.35833 4.70999 8.03333 4.55177 7.725C4.39355 7.425 4.27697 7.15001 4.1937 6.90001C4.11875 6.65834 4.06046 6.44167 4.03548 6.26667C4.01049 6.09167 3.99384 5.95 4.00217 5.85C4.01049 5.75 4.01049 5.69168 4.01049 5.68335C4.01882 5.60002 4.0438 5.52501 4.08544 5.44167C4.12708 5.35834 4.16871 5.29168 4.227 5.24168L5.35119 4.11668C5.42614 4.04168 5.51774 4 5.626 4C5.70094 4 5.76756 4.02501 5.81752 4.06668C5.87582 4.10835 5.92578 4.15835 5.95909 4.22502L6.86677 5.95002C6.91673 6.04169 6.93339 6.14168 6.90841 6.25001C6.88342 6.35834 6.84179 6.45002 6.76684 6.52502L6.35048 6.94169C6.34215 6.95002 6.32549 6.975 6.31717 7C6.30884 7.025 6.30051 7.05002 6.30051 7.06668C6.32549 7.18335 6.37546 7.32501 6.4504 7.47501C6.51702 7.60834 6.62528 7.77501 6.76684 7.97501C6.90841 8.16668 7.10826 8.39168 7.36641 8.65001C7.62456 8.90834 7.84939 9.10835 8.04092 9.25835C8.24078 9.40002 8.40733 9.50833 8.54056 9.575C8.6738 9.64166 8.77373 9.68335 8.84868 9.70002L8.95693 9.72502C8.96526 9.72502 8.99024 9.71667 9.01522 9.70833C9.0402 9.7 9.05686 9.69169 9.07351 9.67502L9.5565 9.18333C9.65642 9.09166 9.77301 9.05002 9.91457 9.05002C10.0145 9.05002 10.0894 9.06668 10.1394 9.10002H10.1477L11.7799 10.0667C11.9048 10.1 11.9798 10.1917 11.9964 10.3083Z" fill="white"/>
</g>
</svg>
